<svg xmlns="http://www.w3.org/2000/svg" viewBox="0 0 1024 1024">
  <defs>
    <filter id="sh" x="-20%" y="-20%" width="140%" height="140%">
      <feDropShadow dx="0" dy="14" stdDeviation="18" flood-color="#17130E" flood-opacity="0.28"/>
    </filter>
  </defs>
  
  <g filter="url(#sh)">
  <g transform="translate(512 500) rotate(-3)">
    <circle r="358" fill="#FFF"/>
    <circle r="322" fill="#FF5C1F"/>
    <g transform="translate(0 -40)">
      <path d="M-150 -60 L-190 -190 L-80 -120 Z" fill="#17130E"/>
      <path d="M150 -60 L190 -190 L80 -120 Z" fill="#17130E"/>
      <circle r="150" fill="#17130E"/>
      <circle cx="-55" cy="-20" r="20" fill="#FFC229"/>
      <circle cx="55" cy="-20" r="20" fill="#FFC229"/>
      <path d="M-14 40 L14 40 L0 58 Z" fill="#FF8FC7"/>
      <path d="M0 58 q -20 26 -44 10 M0 58 q 20 26 44 10" stroke="#FF8FC7" stroke-width="8" fill="none" stroke-linecap="round"/>
      <g stroke="#FAF4EB" stroke-width="6" stroke-linecap="round">
        <line x1="-120" y1="30" x2="-190" y2="20"/><line x1="-120" y1="50" x2="-188" y2="56"/>
        <line x1="120" y1="30" x2="190" y2="20"/><line x1="120" y1="50" x2="188" y2="56"/>
      </g>
    </g>
    <text x="0" y="175" font-family="Arial Black, Arial, sans-serif" font-size="52" font-weight="900" fill="#FAF4EB" text-anchor="middle" letter-spacing="0">PROFESSIONAL</text>
    <text x="0" y="240" font-family="Arial Black, Arial, sans-serif" font-size="62" font-weight="900" fill="#17130E" text-anchor="middle" letter-spacing="0">CAT PERSON</text>
  </g></g>
</svg>